<?xml version="1.0" standalone="no"?>
<!DOCTYPE svg PUBLIC "-//W3C//DTD SVG 20010904//EN"
 "http://www.w3.org/TR/2001/REC-SVG-20010904/DTD/svg10.dtd">
<svg version="1.0" xmlns="http://www.w3.org/2000/svg"
 width="213.000000pt" height="213.000000pt" viewBox="0 0 213.000000 213.000000"
 preserveAspectRatio="xMidYMid meet">
<metadata>
Created by potrace 1.15, written by Peter Selinger 2001-2017
</metadata>
<g transform="translate(0.000000,213.000000) scale(0.100000,-0.100000)"
fill="#000000" stroke="none">
<path d="M516 1604 l-516 -506 0 -48 0 -48 511 -501 c494 -484 512 -501 549
-501 37 0 55 17 554 506 501 492 516 507 516 544 0 37 -15 52 -521 549 -436
427 -526 511 -549 511 -23 0 -112 -83 -544 -506z m1031 -79 c263 -258 478
-472 478 -475 0 -9 -956 -945 -965 -945 -9 0 -965 936 -965 945 0 9 959 949
967 947 3 -1 221 -213 485 -472z"/>
<path d="M850 1633 c-109 -4 -116 -5 -141 -31 -29 -30 -31 -45 -45 -424 l-7
-167 27 -12 c20 -9 32 -9 51 -1 25 11 25 13 25 132 l0 120 133 0 c143 0 157 5
157 50 0 45 -15 50 -149 50 l-126 0 3 90 3 90 99 0 c98 0 148 10 162 33 22 35
-7 78 -50 75 -15 -1 -79 -4 -142 -5z"/>
<path d="M1029 1084 l-234 -234 33 -32 32 -33 234 234 c249 249 245 243 192
283 -22 16 -25 14 -257 -218z"/>
<path d="M1122 1028 c-15 -15 -15 -61 0 -76 8 -8 48 -12 115 -12 57 0 103 -2
103 -5 0 -6 -138 -192 -190 -257 -17 -20 -30 -41 -30 -47 0 -5 -6 -14 -13 -18
-15 -10 -47 -58 -47 -72 0 -6 10 -19 22 -31 20 -18 35 -20 183 -20 173 0 185
3 185 50 0 44 -16 50 -126 50 l-103 0 35 51 c19 29 63 88 98 133 122 156 147
214 108 249 -16 14 -43 17 -173 17 -107 0 -159 -4 -167 -12z"/>
</g>
</svg>
